# xmcd CD database file
#
# Track frame offsets:
#	150
#	23398
#	50342
#	57558
#	92356
#	332550
#
# Disc length: 4440 seconds
#
# Revision: 0
# Processed by: cddbd v1.5PL3 Copyright (c) Steve Scherf et al.
# Submitted via: CDex 1.50
#
DISCID=3f115606
DTITLE=YeLLOW Generation - 夜空に咲く花〜eternal place〜
DYEAR=2003
DGENRE=Japanese Pop
TTITLE0=夜空に咲く花〜eternal place〜
TTITLE1=…by my side
TTITLE2=君がいたから〜eternal way〜（朗読）
TTITLE3=夜空に咲く花〜eternal place〜less vocal
TTITLE4=LGCD Data
TTITLE5=LGCD Data
EXTD=YEAR: 2003
EXTT0=
EXTT1=
EXTT2=
EXTT3=
EXTT4=
EXTT5=
PLAYORDER=
